<svg xmlns="http://www.w3.org/2000/svg" xmlns:xlink="http://www.w3.org/1999/xlink" width="773pt" height="854pt" viewBox="0 0 773.19 854"><g id="graph0" class="graph" transform="scale(1 1) rotate(0) translate(4 850)"><title>G</title><polygon fill="#fff" stroke="transparent" points="-4 4 -4 -850 769.193 -850 769.193 4 -4 4"/><g id="node1" class="node"><title>main</title><ellipse cx="34" cy="-558" fill="none" stroke="#000" rx="34" ry="18"/><text x="34" y="-554.3" fill="#000" font-family="Times,serif" font-size="14" text-anchor="middle">main</text></g><g id="node2" class="node"><title>be_vm_new</title><ellipse cx="181.5" cy="-666" fill="none" stroke="#000" rx="65" ry="18"/><text x="181.5" y="-662.3" fill="#000" font-family="Times,serif" font-size="14" text-anchor="middle">be_vm_new</text></g><g id="edge1" class="edge"><title>main-&gt;be_vm_new</title><path fill="none" stroke="#000" d="M44.8544,-575.2286C57.1492,-593.4473 78.7857,-621.8727 104,-639 110.1582,-643.1831 117.0311,-646.7834 124.0703,-649.8645"/><polygon fill="#000" stroke="#000" points="123.137 -653.262 133.721 -653.75 125.752 -646.769 123.137 -653.262"/></g><g id="node3" class="node"><title>be_loadlibs</title><ellipse cx="181.5" cy="-612" fill="none" stroke="#000" rx="63.089" ry="18"/><text x="181.5" y="-608.3" fill="#000" font-family="Times,serif" font-size="14" text-anchor="middle">be_loadlibs</text></g><g id="edge2" class="edge"><title>main-&gt;be_loadlibs</title><path fill="none" stroke="#000" d="M61.5157,-568.8535C74.3835,-573.8673 89.9375,-579.8399 104,-585 112.7424,-588.2079 122.0725,-591.5378 131.1203,-594.7182"/><polygon fill="#000" stroke="#000" points="130.191 -598.101 140.786 -598.098 132.502 -591.493 130.191 -598.101"/></g><g id="node4" class="node"><title>be_pushstring</title><ellipse cx="181.5" cy="-558" fill="none" stroke="#000" rx="77.5" ry="18"/><text x="181.5" y="-554.3" fill="#000" font-family="Times,serif" font-size="14" text-anchor="middle">be_pushstring</text></g><g id="edge3" class="edge"><title>main-&gt;be_pushstring</title><path fill="none" stroke="#000" d="M68.2102,-558C76.063,-558 84.7649,-558 93.7549,-558"/><polygon fill="#000" stroke="#000" points="93.997 -561.5 103.997 -558 93.997 -554.5 93.997 -561.5"/></g><g id="node5" class="node"><title>analysis_args</title><ellipse cx="181.5" cy="-504" fill="none" stroke="#000" rx="73.5" ry="18"/><text x="181.5" y="-500.3" fill="#000" font-family="Times,serif" font-size="14" text-anchor="middle">analysis_args</text></g><g id="edge4" class="edge"><title>main-&gt;analysis_args</title><path fill="none" stroke="#000" d="M61.5157,-547.1465C74.3835,-542.1327 89.9375,-536.1601 104,-531 111.9796,-528.072 120.4487,-525.0424 128.746,-522.1176"/><polygon fill="#000" stroke="#000" points="130.089 -525.356 138.368 -518.745 127.773 -518.75 130.089 -525.356"/></g><g id="node6" class="node"><title>be_vm_delete</title><ellipse cx="181.5" cy="-450" fill="none" stroke="#000" rx="74.987" ry="18"/><text x="181.5" y="-446.3" fill="#000" font-family="Times,serif" font-size="14" text-anchor="middle">be_vm_delete</text></g><g id="edge5" class="edge"><title>main-&gt;be_vm_delete</title><path fill="none" stroke="#000" d="M44.8544,-540.7714C57.1492,-522.5527 78.7857,-494.1273 104,-477 109.3369,-473.3748 115.2105,-470.1873 121.264,-467.3962"/><polygon fill="#000" stroke="#000" points="123.028 -470.45 130.873 -463.33 120.3 -464.004 123.028 -470.45"/></g><g id="node7" class="node"><title>check_args</title><ellipse cx="374.5" cy="-720" fill="none" stroke="#000" rx="63.889" ry="18"/><text x="374.5" y="-716.3" fill="#000" font-family="Times,serif" font-size="14" text-anchor="middle">check_args</text></g><g id="edge6" class="edge"><title>analysis_args-&gt;check_args</title><path fill="none" stroke="#000" d="M234.1068,-516.7854C242.9839,-520.442 251.6805,-525.0962 259,-531 266.2734,-536.8666 329.1037,-642.8106 358.9194,-693.4562"/><polygon fill="#000" stroke="#000" points="355.995 -695.388 364.082 -702.233 362.029 -691.839 355.995 -695.388"/></g><g id="node8" class="node"><title>be_top</title><ellipse cx="568" cy="-828" fill="none" stroke="#000" rx="42.494" ry="18"/><text x="568" y="-824.3" fill="#000" font-family="Times,serif" font-size="14" text-anchor="middle">be_top</text></g><g id="edge7" class="edge"><title>analysis_args-&gt;be_top</title><path fill="none" stroke="#000" d="M238.146,-515.5641C246.0663,-519.343 253.3986,-524.3545 259,-531 321.7243,-605.4155 230.5514,-674.0728 295,-747 350.821,-810.1647 453.3909,-825.1212 515.6726,-828.0663"/><polygon fill="#000" stroke="#000" points="515.557 -831.564 525.685 -828.453 515.827 -824.57 515.557 -831.564"/></g><g id="node9" class="node"><title>be_writestring</title><ellipse cx="374.5" cy="-558" fill="none" stroke="#000" rx="79.5" ry="18"/><text x="374.5" y="-554.3" fill="#000" font-family="Times,serif" font-size="14" text-anchor="middle">be_writestring</text></g><g id="edge8" class="edge"><title>analysis_args-&gt;be_writestring</title><path fill="none" stroke="#000" d="M230.202,-517.6265C255.8616,-524.8058 287.5531,-533.6729 314.6943,-541.2668"/><polygon fill="#000" stroke="#000" points="313.895 -544.678 324.468 -544.001 315.781 -537.936 313.895 -544.678"/></g><g id="node10" class="node"><title>dofile</title><ellipse cx="374.5" cy="-504" fill="none" stroke="#000" rx="36.5" ry="18"/><text x="374.5" y="-500.3" fill="#000" font-family="Times,serif" font-size="14" text-anchor="middle">dofile</text></g><g id="edge9" class="edge"><title>analysis_args-&gt;dofile</title><path fill="none" stroke="#000" d="M255.0156,-504C279.367,-504 305.7916,-504 327.5841,-504"/><polygon fill="#000" stroke="#000" points="327.881 -507.5 337.881 -504 327.881 -500.5 327.881 -507.5"/></g><g id="node11" class="node"><title>be_pop</title><ellipse cx="374.5" cy="-450" fill="none" stroke="#000" rx="44.393" ry="18"/><text x="374.5" y="-446.3" fill="#000" font-family="Times,serif" font-size="14" text-anchor="middle">be_pop</text></g><g id="edge10" class="edge"><title>analysis_args-&gt;be_pop</title><path fill="none" stroke="#000" d="M230.202,-490.3735C260.3004,-481.9522 298.6983,-471.2088 328.3165,-462.9218"/><polygon fill="#000" stroke="#000" points="329.313 -466.278 338 -460.212 327.426 -459.536 329.313 -466.278"/></g><g id="node12" class="node"><title>be_repl</title><ellipse cx="374.5" cy="-396" fill="none" stroke="#000" rx="45.5" ry="18"/><text x="374.5" y="-392.3" fill="#000" font-family="Times,serif" font-size="14" text-anchor="middle">be_repl</text></g><g id="edge11" class="edge"><title>analysis_args-&gt;be_repl</title><path fill="none" stroke="#000" d="M233.5122,-491.1386C242.5477,-487.4806 251.4528,-482.8455 259,-477 281.8043,-459.3374 272.1267,-440.5731 295,-423 303.6728,-416.3369 314.091,-411.2602 324.4864,-407.4124"/><polygon fill="#000" stroke="#000" points="325.618 -410.725 333.976 -404.214 323.382 -404.091 325.618 -410.725"/></g><g id="node13" class="node"><title>get_line</title><ellipse cx="374.5" cy="-153" fill="none" stroke="#000" rx="48.192" ry="18"/><text x="374.5" y="-149.3" fill="#000" font-family="Times,serif" font-size="14" text-anchor="middle">get_line</text></g><g id="edge12" class="edge"><title>analysis_args-&gt;get_line</title><path fill="none" stroke="#000" d="M236.4799,-491.9962C244.8008,-488.2698 252.6958,-483.3898 259,-477 294.535,-440.9825 278.2599,-416.7469 295,-369 318.8882,-300.8648 348.6597,-221.3063 364.1092,-180.3927"/><polygon fill="#000" stroke="#000" points="367.453 -181.446 367.716 -170.854 360.905 -178.97 367.453 -181.446"/></g><g id="edge13" class="edge"><title>check_args-&gt;be_top</title><path fill="none" stroke="#000" d="M395.0794,-737.1104C417.3467,-754.963 454.4513,-782.8341 490,-801 500.3629,-806.2956 512.0004,-810.9485 523.0611,-814.8335"/><polygon fill="#000" stroke="#000" points="521.992 -818.167 532.586 -818.047 524.23 -811.534 521.992 -818.167"/></g><g id="node14" class="node"><title>be_tostring</title><ellipse cx="568" cy="-666" fill="none" stroke="#000" rx="63.889" ry="18"/><text x="568" y="-662.3" fill="#000" font-family="Times,serif" font-size="14" text-anchor="middle">be_tostring</text></g><g id="edge14" class="edge"><title>check_args-&gt;be_tostring</title><path fill="none" stroke="#000" d="M419.8672,-707.3394C447.6668,-699.5814 483.4396,-689.5982 512.8666,-681.3861"/><polygon fill="#000" stroke="#000" points="513.891 -684.734 522.582 -678.675 512.009 -677.992 513.891 -684.734"/></g><g id="node15" class="node"><title>strlen</title><ellipse cx="568" cy="-774" fill="none" stroke="#000" rx="38.5" ry="18"/><text x="568" y="-770.3" fill="#000" font-family="Times,serif" font-size="14" text-anchor="middle">strlen</text></g><g id="edge15" class="edge"><title>check_args-&gt;strlen</title><path fill="none" stroke="#000" d="M419.8672,-732.6606C451.6179,-741.5213 493.7694,-753.2845 524.9882,-761.9967"/><polygon fill="#000" stroke="#000" points="524.14 -765.394 534.713 -764.711 526.022 -758.651 524.14 -765.394"/></g><g id="node16" class="node"><title>be_removeone</title><ellipse cx="568" cy="-720" fill="none" stroke="#000" rx="78" ry="18"/><text x="568" y="-716.3" fill="#000" font-family="Times,serif" font-size="14" text-anchor="middle">be_removeone</text></g><g id="edge16" class="edge"><title>check_args-&gt;be_removeone</title><path fill="none" stroke="#000" d="M438.3954,-720C451.5941,-720 465.7185,-720 479.6113,-720"/><polygon fill="#000" stroke="#000" points="479.67 -723.5 489.67 -720 479.67 -716.5 479.67 -723.5"/></g><g id="edge17" class="edge"><title>dofile-&gt;be_tostring</title><path fill="none" stroke="#000" d="M409.9305,-508.8297C425.2366,-512.5739 442.2832,-519.2168 454,-531 489.6759,-566.878 454.4291,-603.0179 490,-639 494.8058,-643.8614 500.529,-647.8485 506.6607,-651.1185"/><polygon fill="#000" stroke="#000" points="505.335 -654.362 515.878 -655.414 508.292 -648.017 505.335 -654.362"/></g><g id="node17" class="node"><title>fopen</title><ellipse cx="568" cy="-612" fill="none" stroke="#000" rx="36.5" ry="18"/><text x="568" y="-608.3" fill="#000" font-family="Times,serif" font-size="14" text-anchor="middle">fopen</text></g><g id="edge18" class="edge"><title>dofile-&gt;fopen</title><path fill="none" stroke="#000" d="M408.9787,-510.4687C423.9181,-514.5285 440.9385,-520.9651 454,-531 476.8733,-548.5731 467.1782,-567.3602 490,-585 499.9207,-592.6681 512.1721,-598.2486 524.0018,-602.2728"/><polygon fill="#000" stroke="#000" points="523.192 -605.686 533.779 -605.299 525.261 -598.999 523.192 -605.686"/></g><g id="node18" class="node"><title>readfile</title><ellipse cx="568" cy="-558" fill="none" stroke="#000" rx="46.292" ry="18"/><text x="568" y="-554.3" fill="#000" font-family="Times,serif" font-size="14" text-anchor="middle">readfile</text></g><g id="edge19" class="edge"><title>dofile-&gt;readfile</title><path fill="none" stroke="#000" d="M406.4526,-512.917C437.556,-521.597 485.1949,-534.8916 520.6916,-544.7977"/><polygon fill="#000" stroke="#000" points="519.785 -548.178 530.358 -547.495 521.667 -541.436 519.785 -548.178"/></g><g id="node19" class="node"><title>printf</title><ellipse cx="568" cy="-504" fill="none" stroke="#000" rx="37.093" ry="18"/><text x="568" y="-500.3" fill="#000" font-family="Times,serif" font-size="14" text-anchor="middle">printf</text></g><g id="edge20" class="edge"><title>dofile-&gt;printf</title><path fill="none" stroke="#000" d="M411.3513,-504C442.3557,-504 486.89,-504 520.555,-504"/><polygon fill="#000" stroke="#000" points="520.627 -507.5 530.627 -504 520.627 -500.5 520.627 -507.5"/></g><g id="node20" class="node"><title>be_loadbuffer</title><ellipse cx="568" cy="-450" fill="none" stroke="#000" rx="74.987" ry="18"/><text x="568" y="-446.3" fill="#000" font-family="Times,serif" font-size="14" text-anchor="middle">be_loadbuffer</text></g><g id="edge21" class="edge"><title>dofile-&gt;be_loadbuffer</title><path fill="none" stroke="#000" d="M406.4526,-495.083C434.2967,-487.3126 475.3925,-475.844 509.1657,-466.4189"/><polygon fill="#000" stroke="#000" points="510.242 -469.752 518.933 -463.693 508.361 -463.01 510.242 -469.752"/></g><g id="node21" class="node"><title>free</title><ellipse cx="568" cy="-396" fill="none" stroke="#000" rx="29.497" ry="18"/><text x="568" y="-392.3" fill="#000" font-family="Times,serif" font-size="14" text-anchor="middle">free</text></g><g id="edge22" class="edge"><title>dofile-&gt;free</title><path fill="none" stroke="#000" d="M408.9787,-497.5313C423.9181,-493.4715 440.9385,-487.0349 454,-477 476.8733,-459.4269 467.1782,-440.6398 490,-423 501.6781,-413.9736 516.5857,-407.8398 530.2335,-403.7322"/><polygon fill="#000" stroke="#000" points="531.165 -407.106 539.885 -401.087 529.315 -400.355 531.165 -407.106"/></g><g id="node22" class="node"><title>be_pcall</title><ellipse cx="568" cy="-342" fill="none" stroke="#000" rx="49.5" ry="18"/><text x="568" y="-338.3" fill="#000" font-family="Times,serif" font-size="14" text-anchor="middle">be_pcall</text></g><g id="edge23" class="edge"><title>dofile-&gt;be_pcall</title><path fill="none" stroke="#000" d="M409.9305,-499.1703C425.2366,-495.4261 442.2832,-488.7832 454,-477 489.6759,-441.122 454.4291,-404.9821 490,-369 496.5846,-362.3393 504.8913,-357.3197 513.6115,-353.5375"/><polygon fill="#000" stroke="#000" points="515.072 -356.727 523.174 -349.9 512.583 -350.184 515.072 -356.727"/></g><g id="node23" class="node"><title>be_toint</title><ellipse cx="568" cy="-288" fill="none" stroke="#000" rx="48.993" ry="18"/><text x="568" y="-284.3" fill="#000" font-family="Times,serif" font-size="14" text-anchor="middle">be_toint</text></g><g id="edge24" class="edge"><title>dofile-&gt;be_toint</title><path fill="none" stroke="#000" d="M410.0997,-499.8079C425.629,-496.1957 442.8085,-489.4797 454,-477 503.2426,-422.0895 440.9181,-370.0542 490,-315 496.3698,-307.8551 504.7259,-302.6006 513.5981,-298.7364"/><polygon fill="#000" stroke="#000" points="514.854 -302.003 522.969 -295.192 512.378 -295.456 514.854 -302.003"/></g><g id="node29" class="node"><title>readline</title><ellipse cx="568" cy="-234" fill="none" stroke="#000" rx="48.993" ry="18"/><text x="568" y="-230.3" fill="#000" font-family="Times,serif" font-size="14" text-anchor="middle">readline</text></g><g id="edge30" class="edge"><title>get_line-&gt;readline</title><path fill="none" stroke="#000" d="M403.5604,-167.6147C426.6959,-178.9982 460.0515,-194.8541 490,-207 500.1671,-211.1234 511.2294,-215.1954 521.7422,-218.8779"/><polygon fill="#000" stroke="#000" points="520.606 -222.188 531.201 -222.141 522.889 -215.571 520.606 -222.188"/></g><g id="node30" class="node"><title>add_history</title><ellipse cx="568" cy="-180" fill="none" stroke="#000" rx="65.789" ry="18"/><text x="568" y="-176.3" fill="#000" font-family="Times,serif" font-size="14" text-anchor="middle">add_history</text></g><g id="edge31" class="edge"><title>get_line-&gt;add_history</title><path fill="none" stroke="#000" d="M419.8672,-159.3303C443.5402,-162.6335 472.9952,-166.7435 499.3897,-170.4265"/><polygon fill="#000" stroke="#000" points="498.95 -173.899 509.337 -171.815 499.917 -166.966 498.95 -173.899"/></g><g id="node31" class="node"><title>fputs</title><ellipse cx="568" cy="-126" fill="none" stroke="#000" rx="34.5" ry="18"/><text x="568" y="-122.3" fill="#000" font-family="Times,serif" font-size="14" text-anchor="middle">fputs</text></g><g id="edge32" class="edge"><title>get_line-&gt;fputs</title><path fill="none" stroke="#000" d="M419.8672,-146.6697C451.3801,-142.2725 493.1385,-136.4458 524.2849,-132.0998"/><polygon fill="#000" stroke="#000" points="524.99 -135.535 534.411 -130.687 524.023 -128.602 524.99 -135.535"/></g><g id="node32" class="node"><title>fflush</title><ellipse cx="568" cy="-72" fill="none" stroke="#000" rx="37.093" ry="18"/><text x="568" y="-68.3" fill="#000" font-family="Times,serif" font-size="14" text-anchor="middle">fflush</text></g><g id="edge33" class="edge"><title>get_line-&gt;fflush</title><path fill="none" stroke="#000" d="M403.5604,-138.3853C426.6959,-127.0018 460.0515,-111.1459 490,-99 501.9308,-94.1613 515.0943,-89.3934 527.1559,-85.2426"/><polygon fill="#000" stroke="#000" points="528.63 -88.439 536.977 -81.913 526.383 -81.809 528.63 -88.439"/></g><g id="node33" class="node"><title>fgets</title><ellipse cx="568" cy="-18" fill="none" stroke="#000" rx="34.5" ry="18"/><text x="568" y="-14.3" fill="#000" font-family="Times,serif" font-size="14" text-anchor="middle">fgets</text></g><g id="edge34" class="edge"><title>get_line-&gt;fgets</title><path fill="none" stroke="#000" d="M388.8202,-135.6607C409.1029,-112.113 448.3867,-70.0886 490,-45 501.3297,-38.1693 514.6318,-32.7539 527.0103,-28.6213"/><polygon fill="#000" stroke="#000" points="528.195 -31.918 536.684 -25.58 526.095 -25.24 528.195 -31.918"/></g><g id="node24" class="node"><title>fseek</title><ellipse cx="723.596" cy="-666" fill="none" stroke="#000" rx="35.995" ry="18"/><text x="723.596" y="-662.3" fill="#000" font-family="Times,serif" font-size="14" text-anchor="middle">fseek</text></g><g id="edge25" class="edge"><title>readfile-&gt;fseek</title><path fill="none" stroke="#000" d="M608.5651,-566.5981C621.4257,-570.6869 635.1155,-576.587 646,-585 668.8218,-602.6398 661.4792,-618.7294 682,-639 684.8137,-641.7794 687.957,-644.4307 691.221,-646.9104"/><polygon fill="#000" stroke="#000" points="689.268 -649.816 699.464 -652.696 693.29 -644.086 689.268 -649.816"/></g><g id="node25" class="node"><title>ftell</title><ellipse cx="723.596" cy="-612" fill="none" stroke="#000" rx="29.497" ry="18"/><text x="723.596" y="-608.3" fill="#000" font-family="Times,serif" font-size="14" text-anchor="middle">ftell</text></g><g id="edge26" class="edge"><title>readfile-&gt;ftell</title><path fill="none" stroke="#000" d="M602.5619,-569.9504C616.1092,-574.6381 631.7852,-580.0667 646,-585 659.8522,-589.8075 675.0916,-595.1076 688.3704,-599.7296"/><polygon fill="#000" stroke="#000" points="687.492 -603.13 698.087 -603.112 689.794 -596.519 687.492 -603.13"/></g><g id="node26" class="node"><title>malloc</title><ellipse cx="723.596" cy="-558" fill="none" stroke="#000" rx="41.693" ry="18"/><text x="723.596" y="-554.3" fill="#000" font-family="Times,serif" font-size="14" text-anchor="middle">malloc</text></g><g id="edge27" class="edge"><title>readfile-&gt;malloc</title><path fill="none" stroke="#000" d="M614.2627,-558C632.3273,-558 653.1225,-558 671.6951,-558"/><polygon fill="#000" stroke="#000" points="671.753 -561.5 681.753 -558 671.753 -554.5 671.753 -561.5"/></g><g id="node27" class="node"><title>fread</title><ellipse cx="723.596" cy="-504" fill="none" stroke="#000" rx="35.194" ry="18"/><text x="723.596" y="-500.3" fill="#000" font-family="Times,serif" font-size="14" text-anchor="middle">fread</text></g><g id="edge28" class="edge"><title>readfile-&gt;fread</title><path fill="none" stroke="#000" d="M602.5619,-546.0496C616.1092,-541.3619 631.7852,-535.9333 646,-531 658.6531,-526.6087 672.4636,-521.8063 684.8802,-517.4852"/><polygon fill="#000" stroke="#000" points="686.197 -520.733 694.49 -514.14 683.895 -514.122 686.197 -520.733"/></g><g id="node28" class="node"><title>fclose</title><ellipse cx="723.596" cy="-450" fill="none" stroke="#000" rx="38.5" ry="18"/><text x="723.596" y="-446.3" fill="#000" font-family="Times,serif" font-size="14" text-anchor="middle">fclose</text></g><g id="edge29" class="edge"><title>readfile-&gt;fclose</title><path fill="none" stroke="#000" d="M608.5651,-549.4019C621.4257,-545.3131 635.1155,-539.413 646,-531 668.8218,-513.3602 661.4792,-497.2706 682,-477 684.5266,-474.5042 687.3189,-472.1117 690.2258,-469.854"/><polygon fill="#000" stroke="#000" points="692.494 -472.535 698.596 -463.874 688.424 -466.84 692.494 -472.535"/></g></g></svg>