<?xml version="1.0" encoding="UTF-8" standalone="no"?>
<!DOCTYPE svg PUBLIC "-//W3C//DTD SVG 1.1//EN"
 "http://www.w3.org/Graphics/SVG/1.1/DTD/svg11.dtd">
<!-- Generated by graphviz version 2.40.1 (20161225.0304)
 -->
<!-- Title: G Pages: 1 -->
<svg width="773pt" height="854pt"
 viewBox="0.00 0.00 773.19 854.00" xmlns="http://www.w3.org/2000/svg" xmlns:xlink="http://www.w3.org/1999/xlink">
<g id="graph0" class="graph" transform="scale(1 1) rotate(0) translate(4 850)">
<title>G</title>
<polygon fill="#ffffff" stroke="transparent" points="-4,4 -4,-850 769.1926,-850 769.1926,4 -4,4"/>
<!-- main -->
<g id="node1" class="node">
<title>main</title>
<ellipse fill="none" stroke="#000000" cx="34" cy="-558" rx="34" ry="18"/>
<text text-anchor="middle" x="34" y="-554.3" font-family="Times,serif" font-size="14.00" fill="#000000">main</text>
</g>
<!-- be_vm_new -->
<g id="node2" class="node">
<title>be_vm_new</title>
<ellipse fill="none" stroke="#000000" cx="181.5" cy="-666" rx="65" ry="18"/>
<text text-anchor="middle" x="181.5" y="-662.3" font-family="Times,serif" font-size="14.00" fill="#000000">be_vm_new</text>
</g>
<!-- main&#45;&gt;be_vm_new -->
<g id="edge1" class="edge">
<title>main&#45;&gt;be_vm_new</title>
<path fill="none" stroke="#000000" d="M44.8544,-575.2286C57.1492,-593.4473 78.7857,-621.8727 104,-639 110.1582,-643.1831 117.0311,-646.7834 124.0703,-649.8645"/>
<polygon fill="#000000" stroke="#000000" points="123.1374,-653.2619 133.721,-653.7503 125.7519,-646.7685 123.1374,-653.2619"/>
</g>
<!-- be_loadlibs -->
<g id="node3" class="node">
<title>be_loadlibs</title>
<ellipse fill="none" stroke="#000000" cx="181.5" cy="-612" rx="63.0888" ry="18"/>
<text text-anchor="middle" x="181.5" y="-608.3" font-family="Times,serif" font-size="14.00" fill="#000000">be_loadlibs</text>
</g>
<!-- main&#45;&gt;be_loadlibs -->
<g id="edge2" class="edge">
<title>main&#45;&gt;be_loadlibs</title>
<path fill="none" stroke="#000000" d="M61.5157,-568.8535C74.3835,-573.8673 89.9375,-579.8399 104,-585 112.7424,-588.2079 122.0725,-591.5378 131.1203,-594.7182"/>
<polygon fill="#000000" stroke="#000000" points="130.1913,-598.1011 140.7862,-598.0978 132.5017,-591.4933 130.1913,-598.1011"/>
</g>
<!-- be_pushstring -->
<g id="node4" class="node">
<title>be_pushstring</title>
<ellipse fill="none" stroke="#000000" cx="181.5" cy="-558" rx="77.5" ry="18"/>
<text text-anchor="middle" x="181.5" y="-554.3" font-family="Times,serif" font-size="14.00" fill="#000000">be_pushstring</text>
</g>
<!-- main&#45;&gt;be_pushstring -->
<g id="edge3" class="edge">
<title>main&#45;&gt;be_pushstring</title>
<path fill="none" stroke="#000000" d="M68.2102,-558C76.063,-558 84.7649,-558 93.7549,-558"/>
<polygon fill="#000000" stroke="#000000" points="93.9974,-561.5001 103.9973,-558 93.9973,-554.5001 93.9974,-561.5001"/>
</g>
<!-- analysis_args -->
<g id="node5" class="node">
<title>analysis_args</title>
<ellipse fill="none" stroke="#000000" cx="181.5" cy="-504" rx="73.5" ry="18"/>
<text text-anchor="middle" x="181.5" y="-500.3" font-family="Times,serif" font-size="14.00" fill="#000000">analysis_args</text>
</g>
<!-- main&#45;&gt;analysis_args -->
<g id="edge4" class="edge">
<title>main&#45;&gt;analysis_args</title>
<path fill="none" stroke="#000000" d="M61.5157,-547.1465C74.3835,-542.1327 89.9375,-536.1601 104,-531 111.9796,-528.072 120.4487,-525.0424 128.746,-522.1176"/>
<polygon fill="#000000" stroke="#000000" points="130.0885,-525.3559 138.3676,-518.7446 127.7727,-518.75 130.0885,-525.3559"/>
</g>
<!-- be_vm_delete -->
<g id="node6" class="node">
<title>be_vm_delete</title>
<ellipse fill="none" stroke="#000000" cx="181.5" cy="-450" rx="74.9875" ry="18"/>
<text text-anchor="middle" x="181.5" y="-446.3" font-family="Times,serif" font-size="14.00" fill="#000000">be_vm_delete</text>
</g>
<!-- main&#45;&gt;be_vm_delete -->
<g id="edge5" class="edge">
<title>main&#45;&gt;be_vm_delete</title>
<path fill="none" stroke="#000000" d="M44.8544,-540.7714C57.1492,-522.5527 78.7857,-494.1273 104,-477 109.3369,-473.3748 115.2105,-470.1873 121.264,-467.3962"/>
<polygon fill="#000000" stroke="#000000" points="123.0277,-470.4504 130.8734,-463.3302 120.3,-464.0037 123.0277,-470.4504"/>
</g>
<!-- check_args -->
<g id="node7" class="node">
<title>check_args</title>
<ellipse fill="none" stroke="#000000" cx="374.5" cy="-720" rx="63.8893" ry="18"/>
<text text-anchor="middle" x="374.5" y="-716.3" font-family="Times,serif" font-size="14.00" fill="#000000">check_args</text>
</g>
<!-- analysis_args&#45;&gt;check_args -->
<g id="edge6" class="edge">
<title>analysis_args&#45;&gt;check_args</title>
<path fill="none" stroke="#000000" d="M234.1068,-516.7854C242.9839,-520.442 251.6805,-525.0962 259,-531 266.2734,-536.8666 329.1037,-642.8106 358.9194,-693.4562"/>
<polygon fill="#000000" stroke="#000000" points="355.9949,-695.3877 364.0817,-702.2327 362.0286,-691.8387 355.9949,-695.3877"/>
</g>
<!-- be_top -->
<g id="node8" class="node">
<title>be_top</title>
<ellipse fill="none" stroke="#000000" cx="568" cy="-828" rx="42.4939" ry="18"/>
<text text-anchor="middle" x="568" y="-824.3" font-family="Times,serif" font-size="14.00" fill="#000000">be_top</text>
</g>
<!-- analysis_args&#45;&gt;be_top -->
<g id="edge7" class="edge">
<title>analysis_args&#45;&gt;be_top</title>
<path fill="none" stroke="#000000" d="M238.146,-515.5641C246.0663,-519.343 253.3986,-524.3545 259,-531 321.7243,-605.4155 230.5514,-674.0728 295,-747 350.821,-810.1647 453.3909,-825.1212 515.6726,-828.0663"/>
<polygon fill="#000000" stroke="#000000" points="515.5571,-831.5644 525.6847,-828.4527 515.8272,-824.5696 515.5571,-831.5644"/>
</g>
<!-- be_writestring -->
<g id="node9" class="node">
<title>be_writestring</title>
<ellipse fill="none" stroke="#000000" cx="374.5" cy="-558" rx="79.5" ry="18"/>
<text text-anchor="middle" x="374.5" y="-554.3" font-family="Times,serif" font-size="14.00" fill="#000000">be_writestring</text>
</g>
<!-- analysis_args&#45;&gt;be_writestring -->
<g id="edge8" class="edge">
<title>analysis_args&#45;&gt;be_writestring</title>
<path fill="none" stroke="#000000" d="M230.202,-517.6265C255.8616,-524.8058 287.5531,-533.6729 314.6943,-541.2668"/>
<polygon fill="#000000" stroke="#000000" points="313.895,-544.6775 324.4682,-544.0015 315.7811,-537.9364 313.895,-544.6775"/>
</g>
<!-- dofile -->
<g id="node10" class="node">
<title>dofile</title>
<ellipse fill="none" stroke="#000000" cx="374.5" cy="-504" rx="36.5" ry="18"/>
<text text-anchor="middle" x="374.5" y="-500.3" font-family="Times,serif" font-size="14.00" fill="#000000">dofile</text>
</g>
<!-- analysis_args&#45;&gt;dofile -->
<g id="edge9" class="edge">
<title>analysis_args&#45;&gt;dofile</title>
<path fill="none" stroke="#000000" d="M255.0156,-504C279.367,-504 305.7916,-504 327.5841,-504"/>
<polygon fill="#000000" stroke="#000000" points="327.8808,-507.5001 337.8807,-504 327.8807,-500.5001 327.8808,-507.5001"/>
</g>
<!-- be_pop -->
<g id="node11" class="node">
<title>be_pop</title>
<ellipse fill="none" stroke="#000000" cx="374.5" cy="-450" rx="44.393" ry="18"/>
<text text-anchor="middle" x="374.5" y="-446.3" font-family="Times,serif" font-size="14.00" fill="#000000">be_pop</text>
</g>
<!-- analysis_args&#45;&gt;be_pop -->
<g id="edge10" class="edge">
<title>analysis_args&#45;&gt;be_pop</title>
<path fill="none" stroke="#000000" d="M230.202,-490.3735C260.3004,-481.9522 298.6983,-471.2088 328.3165,-462.9218"/>
<polygon fill="#000000" stroke="#000000" points="329.3126,-466.2776 337.9997,-460.2125 327.4264,-459.5365 329.3126,-466.2776"/>
</g>
<!-- be_repl -->
<g id="node12" class="node">
<title>be_repl</title>
<ellipse fill="none" stroke="#000000" cx="374.5" cy="-396" rx="45.5" ry="18"/>
<text text-anchor="middle" x="374.5" y="-392.3" font-family="Times,serif" font-size="14.00" fill="#000000">be_repl</text>
</g>
<!-- analysis_args&#45;&gt;be_repl -->
<g id="edge11" class="edge">
<title>analysis_args&#45;&gt;be_repl</title>
<path fill="none" stroke="#000000" d="M233.5122,-491.1386C242.5477,-487.4806 251.4528,-482.8455 259,-477 281.8043,-459.3374 272.1267,-440.5731 295,-423 303.6728,-416.3369 314.091,-411.2602 324.4864,-407.4124"/>
<polygon fill="#000000" stroke="#000000" points="325.6178,-410.7246 333.9761,-404.2139 323.382,-404.0912 325.6178,-410.7246"/>
</g>
<!-- get_line -->
<g id="node13" class="node">
<title>get_line</title>
<ellipse fill="none" stroke="#000000" cx="374.5" cy="-153" rx="48.1917" ry="18"/>
<text text-anchor="middle" x="374.5" y="-149.3" font-family="Times,serif" font-size="14.00" fill="#000000">get_line</text>
</g>
<!-- analysis_args&#45;&gt;get_line -->
<g id="edge12" class="edge">
<title>analysis_args&#45;&gt;get_line</title>
<path fill="none" stroke="#000000" d="M236.4799,-491.9962C244.8008,-488.2698 252.6958,-483.3898 259,-477 294.535,-440.9825 278.2599,-416.7469 295,-369 318.8882,-300.8648 348.6597,-221.3063 364.1092,-180.3927"/>
<polygon fill="#000000" stroke="#000000" points="367.4529,-181.4455 367.7161,-170.854 360.9053,-178.9696 367.4529,-181.4455"/>
</g>
<!-- check_args&#45;&gt;be_top -->
<g id="edge13" class="edge">
<title>check_args&#45;&gt;be_top</title>
<path fill="none" stroke="#000000" d="M395.0794,-737.1104C417.3467,-754.963 454.4513,-782.8341 490,-801 500.3629,-806.2956 512.0004,-810.9485 523.0611,-814.8335"/>
<polygon fill="#000000" stroke="#000000" points="521.9919,-818.1665 532.586,-818.0468 524.2295,-811.5338 521.9919,-818.1665"/>
</g>
<!-- be_tostring -->
<g id="node14" class="node">
<title>be_tostring</title>
<ellipse fill="none" stroke="#000000" cx="568" cy="-666" rx="63.8893" ry="18"/>
<text text-anchor="middle" x="568" y="-662.3" font-family="Times,serif" font-size="14.00" fill="#000000">be_tostring</text>
</g>
<!-- check_args&#45;&gt;be_tostring -->
<g id="edge14" class="edge">
<title>check_args&#45;&gt;be_tostring</title>
<path fill="none" stroke="#000000" d="M419.8672,-707.3394C447.6668,-699.5814 483.4396,-689.5982 512.8666,-681.3861"/>
<polygon fill="#000000" stroke="#000000" points="513.8911,-684.734 522.5822,-678.6747 512.0094,-677.9916 513.8911,-684.734"/>
</g>
<!-- strlen -->
<g id="node15" class="node">
<title>strlen</title>
<ellipse fill="none" stroke="#000000" cx="568" cy="-774" rx="38.5" ry="18"/>
<text text-anchor="middle" x="568" y="-770.3" font-family="Times,serif" font-size="14.00" fill="#000000">strlen</text>
</g>
<!-- check_args&#45;&gt;strlen -->
<g id="edge15" class="edge">
<title>check_args&#45;&gt;strlen</title>
<path fill="none" stroke="#000000" d="M419.8672,-732.6606C451.6179,-741.5213 493.7694,-753.2845 524.9882,-761.9967"/>
<polygon fill="#000000" stroke="#000000" points="524.1402,-765.3937 534.7129,-764.7106 526.0218,-758.6513 524.1402,-765.3937"/>
</g>
<!-- be_removeone -->
<g id="node16" class="node">
<title>be_removeone</title>
<ellipse fill="none" stroke="#000000" cx="568" cy="-720" rx="78" ry="18"/>
<text text-anchor="middle" x="568" y="-716.3" font-family="Times,serif" font-size="14.00" fill="#000000">be_removeone</text>
</g>
<!-- check_args&#45;&gt;be_removeone -->
<g id="edge16" class="edge">
<title>check_args&#45;&gt;be_removeone</title>
<path fill="none" stroke="#000000" d="M438.3954,-720C451.5941,-720 465.7185,-720 479.6113,-720"/>
<polygon fill="#000000" stroke="#000000" points="479.6699,-723.5001 489.6699,-720 479.6698,-716.5001 479.6699,-723.5001"/>
</g>
<!-- dofile&#45;&gt;be_tostring -->
<g id="edge17" class="edge">
<title>dofile&#45;&gt;be_tostring</title>
<path fill="none" stroke="#000000" d="M409.9305,-508.8297C425.2366,-512.5739 442.2832,-519.2168 454,-531 489.6759,-566.878 454.4291,-603.0179 490,-639 494.8058,-643.8614 500.529,-647.8485 506.6607,-651.1185"/>
<polygon fill="#000000" stroke="#000000" points="505.3351,-654.3621 515.8776,-655.4144 508.2924,-648.0174 505.3351,-654.3621"/>
</g>
<!-- fopen -->
<g id="node17" class="node">
<title>fopen</title>
<ellipse fill="none" stroke="#000000" cx="568" cy="-612" rx="36.5" ry="18"/>
<text text-anchor="middle" x="568" y="-608.3" font-family="Times,serif" font-size="14.00" fill="#000000">fopen</text>
</g>
<!-- dofile&#45;&gt;fopen -->
<g id="edge18" class="edge">
<title>dofile&#45;&gt;fopen</title>
<path fill="none" stroke="#000000" d="M408.9787,-510.4687C423.9181,-514.5285 440.9385,-520.9651 454,-531 476.8733,-548.5731 467.1782,-567.3602 490,-585 499.9207,-592.6681 512.1721,-598.2486 524.0018,-602.2728"/>
<polygon fill="#000000" stroke="#000000" points="523.1915,-605.6857 533.7793,-605.2987 525.2611,-598.9986 523.1915,-605.6857"/>
</g>
<!-- readfile -->
<g id="node18" class="node">
<title>readfile</title>
<ellipse fill="none" stroke="#000000" cx="568" cy="-558" rx="46.2923" ry="18"/>
<text text-anchor="middle" x="568" y="-554.3" font-family="Times,serif" font-size="14.00" fill="#000000">readfile</text>
</g>
<!-- dofile&#45;&gt;readfile -->
<g id="edge19" class="edge">
<title>dofile&#45;&gt;readfile</title>
<path fill="none" stroke="#000000" d="M406.4526,-512.917C437.556,-521.597 485.1949,-534.8916 520.6916,-544.7977"/>
<polygon fill="#000000" stroke="#000000" points="519.7849,-548.1783 530.3577,-547.4952 521.6666,-541.4359 519.7849,-548.1783"/>
</g>
<!-- printf -->
<g id="node19" class="node">
<title>printf</title>
<ellipse fill="none" stroke="#000000" cx="568" cy="-504" rx="37.0935" ry="18"/>
<text text-anchor="middle" x="568" y="-500.3" font-family="Times,serif" font-size="14.00" fill="#000000">printf</text>
</g>
<!-- dofile&#45;&gt;printf -->
<g id="edge20" class="edge">
<title>dofile&#45;&gt;printf</title>
<path fill="none" stroke="#000000" d="M411.3513,-504C442.3557,-504 486.89,-504 520.555,-504"/>
<polygon fill="#000000" stroke="#000000" points="520.6268,-507.5001 530.6268,-504 520.6267,-500.5001 520.6268,-507.5001"/>
</g>
<!-- be_loadbuffer -->
<g id="node20" class="node">
<title>be_loadbuffer</title>
<ellipse fill="none" stroke="#000000" cx="568" cy="-450" rx="74.9875" ry="18"/>
<text text-anchor="middle" x="568" y="-446.3" font-family="Times,serif" font-size="14.00" fill="#000000">be_loadbuffer</text>
</g>
<!-- dofile&#45;&gt;be_loadbuffer -->
<g id="edge21" class="edge">
<title>dofile&#45;&gt;be_loadbuffer</title>
<path fill="none" stroke="#000000" d="M406.4526,-495.083C434.2967,-487.3126 475.3925,-475.844 509.1657,-466.4189"/>
<polygon fill="#000000" stroke="#000000" points="510.2422,-469.7523 518.9334,-463.693 508.3606,-463.0099 510.2422,-469.7523"/>
</g>
<!-- free -->
<g id="node21" class="node">
<title>free</title>
<ellipse fill="none" stroke="#000000" cx="568" cy="-396" rx="29.4969" ry="18"/>
<text text-anchor="middle" x="568" y="-392.3" font-family="Times,serif" font-size="14.00" fill="#000000">free</text>
</g>
<!-- dofile&#45;&gt;free -->
<g id="edge22" class="edge">
<title>dofile&#45;&gt;free</title>
<path fill="none" stroke="#000000" d="M408.9787,-497.5313C423.9181,-493.4715 440.9385,-487.0349 454,-477 476.8733,-459.4269 467.1782,-440.6398 490,-423 501.6781,-413.9736 516.5857,-407.8398 530.2335,-403.7322"/>
<polygon fill="#000000" stroke="#000000" points="531.1654,-407.106 539.8845,-401.087 529.3149,-400.355 531.1654,-407.106"/>
</g>
<!-- be_pcall -->
<g id="node22" class="node">
<title>be_pcall</title>
<ellipse fill="none" stroke="#000000" cx="568" cy="-342" rx="49.5" ry="18"/>
<text text-anchor="middle" x="568" y="-338.3" font-family="Times,serif" font-size="14.00" fill="#000000">be_pcall</text>
</g>
<!-- dofile&#45;&gt;be_pcall -->
<g id="edge23" class="edge">
<title>dofile&#45;&gt;be_pcall</title>
<path fill="none" stroke="#000000" d="M409.9305,-499.1703C425.2366,-495.4261 442.2832,-488.7832 454,-477 489.6759,-441.122 454.4291,-404.9821 490,-369 496.5846,-362.3393 504.8913,-357.3197 513.6115,-353.5375"/>
<polygon fill="#000000" stroke="#000000" points="515.072,-356.7266 523.1742,-349.8998 512.5832,-350.184 515.072,-356.7266"/>
</g>
<!-- be_toint -->
<g id="node23" class="node">
<title>be_toint</title>
<ellipse fill="none" stroke="#000000" cx="568" cy="-288" rx="48.9926" ry="18"/>
<text text-anchor="middle" x="568" y="-284.3" font-family="Times,serif" font-size="14.00" fill="#000000">be_toint</text>
</g>
<!-- dofile&#45;&gt;be_toint -->
<g id="edge24" class="edge">
<title>dofile&#45;&gt;be_toint</title>
<path fill="none" stroke="#000000" d="M410.0997,-499.8079C425.629,-496.1957 442.8085,-489.4797 454,-477 503.2426,-422.0895 440.9181,-370.0542 490,-315 496.3698,-307.8551 504.7259,-302.6006 513.5981,-298.7364"/>
<polygon fill="#000000" stroke="#000000" points="514.8541,-302.0034 522.9691,-295.1918 512.3775,-295.4561 514.8541,-302.0034"/>
</g>
<!-- readline -->
<g id="node29" class="node">
<title>readline</title>
<ellipse fill="none" stroke="#000000" cx="568" cy="-234" rx="48.9926" ry="18"/>
<text text-anchor="middle" x="568" y="-230.3" font-family="Times,serif" font-size="14.00" fill="#000000">readline</text>
</g>
<!-- get_line&#45;&gt;readline -->
<g id="edge30" class="edge">
<title>get_line&#45;&gt;readline</title>
<path fill="none" stroke="#000000" d="M403.5604,-167.6147C426.6959,-178.9982 460.0515,-194.8541 490,-207 500.1671,-211.1234 511.2294,-215.1954 521.7422,-218.8779"/>
<polygon fill="#000000" stroke="#000000" points="520.606,-222.1883 531.2008,-222.1406 522.8887,-215.571 520.606,-222.1883"/>
</g>
<!-- add_history -->
<g id="node30" class="node">
<title>add_history</title>
<ellipse fill="none" stroke="#000000" cx="568" cy="-180" rx="65.7887" ry="18"/>
<text text-anchor="middle" x="568" y="-176.3" font-family="Times,serif" font-size="14.00" fill="#000000">add_history</text>
</g>
<!-- get_line&#45;&gt;add_history -->
<g id="edge31" class="edge">
<title>get_line&#45;&gt;add_history</title>
<path fill="none" stroke="#000000" d="M419.8672,-159.3303C443.5402,-162.6335 472.9952,-166.7435 499.3897,-170.4265"/>
<polygon fill="#000000" stroke="#000000" points="498.9496,-173.8989 509.3374,-171.8145 499.917,-166.9661 498.9496,-173.8989"/>
</g>
<!-- fputs -->
<g id="node31" class="node">
<title>fputs</title>
<ellipse fill="none" stroke="#000000" cx="568" cy="-126" rx="34.5" ry="18"/>
<text text-anchor="middle" x="568" y="-122.3" font-family="Times,serif" font-size="14.00" fill="#000000">fputs</text>
</g>
<!-- get_line&#45;&gt;fputs -->
<g id="edge32" class="edge">
<title>get_line&#45;&gt;fputs</title>
<path fill="none" stroke="#000000" d="M419.8672,-146.6697C451.3801,-142.2725 493.1385,-136.4458 524.2849,-132.0998"/>
<polygon fill="#000000" stroke="#000000" points="524.9902,-135.5354 534.4106,-130.6869 524.0228,-128.6025 524.9902,-135.5354"/>
</g>
<!-- fflush -->
<g id="node32" class="node">
<title>fflush</title>
<ellipse fill="none" stroke="#000000" cx="568" cy="-72" rx="37.0935" ry="18"/>
<text text-anchor="middle" x="568" y="-68.3" font-family="Times,serif" font-size="14.00" fill="#000000">fflush</text>
</g>
<!-- get_line&#45;&gt;fflush -->
<g id="edge33" class="edge">
<title>get_line&#45;&gt;fflush</title>
<path fill="none" stroke="#000000" d="M403.5604,-138.3853C426.6959,-127.0018 460.0515,-111.1459 490,-99 501.9308,-94.1613 515.0943,-89.3934 527.1559,-85.2426"/>
<polygon fill="#000000" stroke="#000000" points="528.6304,-88.4385 536.9772,-81.913 526.3829,-81.8091 528.6304,-88.4385"/>
</g>
<!-- fgets -->
<g id="node33" class="node">
<title>fgets</title>
<ellipse fill="none" stroke="#000000" cx="568" cy="-18" rx="34.5" ry="18"/>
<text text-anchor="middle" x="568" y="-14.3" font-family="Times,serif" font-size="14.00" fill="#000000">fgets</text>
</g>
<!-- get_line&#45;&gt;fgets -->
<g id="edge34" class="edge">
<title>get_line&#45;&gt;fgets</title>
<path fill="none" stroke="#000000" d="M388.8202,-135.6607C409.1029,-112.113 448.3867,-70.0886 490,-45 501.3297,-38.1693 514.6318,-32.7539 527.0103,-28.6213"/>
<polygon fill="#000000" stroke="#000000" points="528.1946,-31.918 536.6843,-25.5796 526.0949,-25.2403 528.1946,-31.918"/>
</g>
<!-- fseek -->
<g id="node24" class="node">
<title>fseek</title>
<ellipse fill="none" stroke="#000000" cx="723.5963" cy="-666" rx="35.9954" ry="18"/>
<text text-anchor="middle" x="723.5963" y="-662.3" font-family="Times,serif" font-size="14.00" fill="#000000">fseek</text>
</g>
<!-- readfile&#45;&gt;fseek -->
<g id="edge25" class="edge">
<title>readfile&#45;&gt;fseek</title>
<path fill="none" stroke="#000000" d="M608.5651,-566.5981C621.4257,-570.6869 635.1155,-576.587 646,-585 668.8218,-602.6398 661.4792,-618.7294 682,-639 684.8137,-641.7794 687.957,-644.4307 691.221,-646.9104"/>
<polygon fill="#000000" stroke="#000000" points="689.2683,-649.8159 699.4642,-652.696 693.2897,-644.0863 689.2683,-649.8159"/>
</g>
<!-- ftell -->
<g id="node25" class="node">
<title>ftell</title>
<ellipse fill="none" stroke="#000000" cx="723.5963" cy="-612" rx="29.4969" ry="18"/>
<text text-anchor="middle" x="723.5963" y="-608.3" font-family="Times,serif" font-size="14.00" fill="#000000">ftell</text>
</g>
<!-- readfile&#45;&gt;ftell -->
<g id="edge26" class="edge">
<title>readfile&#45;&gt;ftell</title>
<path fill="none" stroke="#000000" d="M602.5619,-569.9504C616.1092,-574.6381 631.7852,-580.0667 646,-585 659.8522,-589.8075 675.0916,-595.1076 688.3704,-599.7296"/>
<polygon fill="#000000" stroke="#000000" points="687.4925,-603.1299 698.0873,-603.1125 689.794,-596.5191 687.4925,-603.1299"/>
</g>
<!-- malloc -->
<g id="node26" class="node">
<title>malloc</title>
<ellipse fill="none" stroke="#000000" cx="723.5963" cy="-558" rx="41.6928" ry="18"/>
<text text-anchor="middle" x="723.5963" y="-554.3" font-family="Times,serif" font-size="14.00" fill="#000000">malloc</text>
</g>
<!-- readfile&#45;&gt;malloc -->
<g id="edge27" class="edge">
<title>readfile&#45;&gt;malloc</title>
<path fill="none" stroke="#000000" d="M614.2627,-558C632.3273,-558 653.1225,-558 671.6951,-558"/>
<polygon fill="#000000" stroke="#000000" points="671.7531,-561.5001 681.7531,-558 671.753,-554.5001 671.7531,-561.5001"/>
</g>
<!-- fread -->
<g id="node27" class="node">
<title>fread</title>
<ellipse fill="none" stroke="#000000" cx="723.5963" cy="-504" rx="35.194" ry="18"/>
<text text-anchor="middle" x="723.5963" y="-500.3" font-family="Times,serif" font-size="14.00" fill="#000000">fread</text>
</g>
<!-- readfile&#45;&gt;fread -->
<g id="edge28" class="edge">
<title>readfile&#45;&gt;fread</title>
<path fill="none" stroke="#000000" d="M602.5619,-546.0496C616.1092,-541.3619 631.7852,-535.9333 646,-531 658.6531,-526.6087 672.4636,-521.8063 684.8802,-517.4852"/>
<polygon fill="#000000" stroke="#000000" points="686.1968,-520.7329 694.4904,-514.14 683.8955,-514.122 686.1968,-520.7329"/>
</g>
<!-- fclose -->
<g id="node28" class="node">
<title>fclose</title>
<ellipse fill="none" stroke="#000000" cx="723.5963" cy="-450" rx="38.5" ry="18"/>
<text text-anchor="middle" x="723.5963" y="-446.3" font-family="Times,serif" font-size="14.00" fill="#000000">fclose</text>
</g>
<!-- readfile&#45;&gt;fclose -->
<g id="edge29" class="edge">
<title>readfile&#45;&gt;fclose</title>
<path fill="none" stroke="#000000" d="M608.5651,-549.4019C621.4257,-545.3131 635.1155,-539.413 646,-531 668.8218,-513.3602 661.4792,-497.2706 682,-477 684.5266,-474.5042 687.3189,-472.1117 690.2258,-469.854"/>
<polygon fill="#000000" stroke="#000000" points="692.4935,-472.5354 698.5957,-463.8744 688.4243,-466.8396 692.4935,-472.5354"/>
</g>
</g>
</svg>
